<svg width="62" height="61" viewBox="0 0 62 61" fill="none" xmlns="http://www.w3.org/2000/svg">
<rect x="0.824468" y="0.324468" width="60.3511" height="60.3511" rx="30.1755" fill="#472799"/>
<rect x="0.824468" y="0.324468" width="60.3511" height="60.3511" rx="30.1755" stroke="#555555" stroke-width="0.648936"/>
<path fill-rule="evenodd" clip-rule="evenodd" d="M44.5742 20.7038C44.974 21.1038 45.1987 21.6463 45.1987 22.2118C45.1987 22.7774 44.974 23.3199 44.5742 23.7199L28.5868 39.7073C28.3755 39.9186 28.1247 40.0862 27.8486 40.2006C27.5725 40.315 27.2766 40.3738 26.9778 40.3738C26.679 40.3738 26.3831 40.315 26.107 40.2006C25.8309 40.0862 25.5801 39.9186 25.3688 39.7073L17.4256 31.7655C17.2219 31.5687 17.0594 31.3333 16.9476 31.0731C16.8358 30.8129 16.777 30.533 16.7745 30.2498C16.772 29.9666 16.826 29.6857 16.9332 29.4236C17.0405 29.1614 17.1989 28.9233 17.3991 28.723C17.5994 28.5227 17.8376 28.3643 18.0997 28.2571C18.3618 28.1498 18.6427 28.0959 18.9259 28.0983C19.2091 28.1008 19.489 28.1596 19.7493 28.2714C20.0095 28.3832 20.2449 28.5457 20.4416 28.7494L26.9771 35.2849L41.5567 20.7038C41.7548 20.5056 41.99 20.3484 42.2489 20.2411C42.5077 20.1338 42.7852 20.0786 43.0654 20.0786C43.3457 20.0786 43.6231 20.1338 43.882 20.2411C44.1409 20.3484 44.3761 20.5056 44.5742 20.7038Z" fill="white"/>
</svg>
