<svg width="63" height="63" viewBox="0 0 63 63" fill="none" xmlns="http://www.w3.org/2000/svg">
<path d="M21.1666 44.4165C13.8599 44.4165 10.2065 44.4165 7.93655 42.1466C6.46585 40.6759 5.94803 38.6244 5.7657 35.3748H57.2342C57.0519 38.6244 56.5341 40.6759 55.0634 42.1466C52.7935 44.4165 49.1401 44.4165 41.8333 44.4165H33.4375V54.7498H41.8333C42.9033 54.7498 43.7708 55.6173 43.7708 56.6873C43.7708 57.7574 42.9033 58.6248 41.8333 58.6248H21.1666C20.0966 58.6248 19.2291 57.7574 19.2291 56.6873C19.2291 55.6173 20.0966 54.7498 21.1666 54.7498H29.5625V44.4165H21.1666Z" fill="#472799"/>
<path d="M26.3333 5.6665H36.6666C46.409 5.6665 51.2802 5.6665 54.3067 8.69307C57.3333 11.7196 57.3333 16.5908 57.3333 26.3332V28.9165C57.3333 30.3415 57.3333 31.6276 57.3165 32.7915H5.68346C5.66663 31.6276 5.66663 30.3415 5.66663 28.9165V26.3332C5.66663 16.5908 5.66663 11.7196 8.69319 8.69307C11.7198 5.6665 16.5909 5.6665 26.3333 5.6665Z" fill="#472799"/>
</svg>
