<svg width="64" height="64" viewBox="0 0 64 64" fill="none" xmlns="http://www.w3.org/2000/svg">
<path fill-rule="evenodd" clip-rule="evenodd" d="M37.25 58.25H26.75C16.8505 58.25 11.9008 58.25 8.82538 55.1746C5.75 52.0992 5.75 47.1495 5.75 37.25V26.75C5.75 16.8505 5.75 11.9008 8.82538 8.82538C11.9008 5.75 16.8766 5.75 26.8282 5.75C28.419 5.75 29.6937 5.75 30.7663 5.79374C30.731 6.00356 30.7125 6.21759 30.7117 6.43399L30.6875 13.8743C30.6873 16.7542 30.6871 19.2993 30.9629 21.3508C31.2618 23.5745 31.9483 25.7978 33.7629 27.6124C35.5775 29.427 37.8008 30.1134 40.0245 30.4124C42.076 30.6882 44.6211 30.688 47.501 30.6878L47.75 30.6878H58.1382C58.25 32.0902 58.25 33.8115 58.25 36.1026V37.25C58.25 47.1495 58.25 52.0992 55.1746 55.1746C52.0992 58.25 47.1495 58.25 37.25 58.25Z" fill="#4C3C74"/>
<path d="M51.2983 20.4937L40.9065 11.1411C37.9458 8.47653 36.4655 7.14425 34.6492 6.44727L34.625 13.6253C34.625 19.8125 34.625 22.9061 36.5471 24.8282C38.4692 26.7503 41.5628 26.7503 47.75 26.7503H57.1477C56.196 24.9017 54.492 23.3681 51.2983 20.4937Z" fill="#472799"/>
</svg>
