<svg width="64" height="64" viewBox="0 0 64 64" fill="none" xmlns="http://www.w3.org/2000/svg">
<path fill-rule="evenodd" clip-rule="evenodd" d="M5.823 30.0312C6.82975 16.4533 18.1651 5.75 32.0003 5.75C29.8193 5.75 27.8774 6.70605 26.2799 8.16796C24.6904 9.62254 23.3472 11.653 22.2607 14.0533C21.1679 16.4677 20.319 19.2915 19.7445 22.356C19.2839 24.8126 19.0036 27.4024 18.9102 30.0312H5.823ZM5.823 33.9688H18.9102C19.0036 36.5976 19.2839 39.1874 19.7445 41.6439C20.319 44.7085 21.1679 47.5323 22.2607 49.9467C23.3472 52.347 24.6904 54.3775 26.2799 55.832C27.8774 57.294 29.8193 58.25 32.0003 58.25C18.1651 58.25 6.82975 47.5467 5.823 33.9688Z" fill="#472799"/>
<path d="M32.0003 9.41279C31.2784 9.41279 30.3458 9.71996 29.2614 10.7123C28.1689 11.7121 27.0753 13.2789 26.109 15.4136C25.1492 17.5342 24.3698 20.0941 23.8335 22.9548C23.4111 25.2076 23.1491 27.5957 23.0571 30.0312H40.9434C40.8515 27.5957 40.5895 25.2076 40.1671 22.9548C39.6307 20.0941 38.8514 17.5342 37.8915 15.4136C36.9253 13.2789 35.8316 11.7121 34.7392 10.7123C33.6548 9.71996 32.7222 9.41279 32.0003 9.41279Z" fill="#472799"/>
<path d="M23.8335 41.0452C24.3698 43.9059 25.1492 46.4658 26.109 48.5864C27.0753 50.7211 28.1689 52.2879 29.2614 53.2877C30.3458 54.28 31.2784 54.5872 32.0003 54.5872C32.7222 54.5872 33.6548 54.28 34.7392 53.2877C35.8316 52.2879 36.9253 50.7211 37.8915 48.5864C38.8514 46.4658 39.6307 43.9059 40.1671 41.0452C40.5895 38.7924 40.8515 36.4043 40.9434 33.9688H23.0571C23.1491 36.4043 23.4111 38.7924 23.8335 41.0452Z" fill="#472799"/>
<path d="M32.0003 5.75C34.1813 5.75 36.1232 6.70605 37.7207 8.16796C39.3102 9.62254 40.6534 11.653 41.7398 14.0533C42.8327 16.4677 43.6815 19.2915 44.2561 22.3561C44.7166 24.8126 44.9969 27.4024 45.0904 30.0312H58.1776C57.1708 16.4533 45.8355 5.75 32.0003 5.75Z" fill="#472799"/>
<path d="M44.2561 41.644C43.6815 44.7085 42.8327 47.5323 41.7398 49.9467C40.6534 52.347 39.3102 54.3775 37.7207 55.832C36.1232 57.294 34.1813 58.25 32.0003 58.25C45.8355 58.25 57.1708 47.5467 58.1776 33.9688H45.0904C44.9969 36.5976 44.7166 39.1874 44.2561 41.644Z" fill="#472799"/>
</svg>
