<svg width="72" height="72" viewBox="0 0 72 72" fill="none" xmlns="http://www.w3.org/2000/svg">
<rect x="0.272339" width="71.2723" height="71.2723" rx="35.6362" fill="#F5F5F5"/>
<path d="M30.0088 23.5865C30.495 22.3537 32.2398 22.3537 32.726 23.5865L34.2328 27.407C34.3812 27.7834 34.6792 28.0813 35.0556 28.2298L38.8761 29.7366C40.1089 30.2228 40.1089 31.9676 38.8761 32.4538L35.0556 33.9606C34.6792 34.109 34.3812 34.407 34.2328 34.7834L32.726 38.6039C32.2398 39.8367 30.495 39.8367 30.0088 38.6039L28.502 34.7834C28.3535 34.407 28.0556 34.109 27.6792 33.9606L23.8587 32.4538C22.6259 31.9676 22.6259 30.2228 23.8587 29.7366L27.6792 28.2298C28.0556 28.0813 28.3535 27.7834 28.502 27.407L30.0088 23.5865Z" fill="#472799"/>
<path d="M42.2976 37.4417C42.5648 36.7642 43.5237 36.7642 43.7909 37.4417L44.9595 40.4047C45.041 40.6115 45.2048 40.7753 45.4116 40.8568L48.3746 42.0254C49.0521 42.2926 49.0521 43.2515 48.3746 43.5187L45.4116 44.6872C45.2048 44.7688 45.041 44.9326 44.9595 45.1394L43.7909 48.1024C43.5237 48.7799 42.5648 48.7799 42.2976 48.1024L41.1291 45.1394C41.0475 44.9326 40.8837 44.7688 40.6769 44.6872L37.7139 43.5187C37.0364 43.2515 37.0364 42.2926 37.7139 42.0254L40.6769 40.8568C40.8837 40.7753 41.0475 40.6115 41.1291 40.4047L42.2976 37.4417Z" fill="#472799"/>
</svg>
