<svg width="72" height="72" viewBox="0 0 72 72" fill="none" xmlns="http://www.w3.org/2000/svg">
<rect width="71.2723" height="71.2723" rx="35.6362" fill="#472799"/>
<path fill-rule="evenodd" clip-rule="evenodd" d="M24.5267 40.3615C24.8711 40.3378 25.3112 40.3374 25.9425 40.3374H44.6377C45.2691 40.3374 45.7091 40.3378 46.0536 40.3615C46.392 40.3847 46.5891 40.4281 46.7396 40.4908C47.2304 40.6953 47.6204 41.0875 47.8237 41.5812C47.886 41.7326 47.9292 41.9309 47.9523 42.2713C47.9758 42.6178 47.9761 43.0605 47.9761 43.6955C47.9761 44.3306 47.9758 44.7732 47.9523 45.1197C47.9292 45.4601 47.886 45.6584 47.8237 45.8098C47.6204 46.3035 47.2304 46.6957 46.7396 46.9002C46.5891 46.9629 46.392 47.0063 46.0536 47.0296C45.7091 47.0532 45.2691 47.0536 44.6377 47.0536H25.9425C25.3112 47.0536 24.8711 47.0532 24.5267 47.0296C24.1882 47.0063 23.9911 46.9629 23.8406 46.9002C23.3498 46.6957 22.9599 46.3035 22.7566 45.8098C22.6943 45.6584 22.6511 45.4601 22.628 45.1197C22.6045 44.7732 22.6041 44.3306 22.6041 43.6955C22.6041 43.0605 22.6045 42.6178 22.628 42.2713C22.6511 41.9309 22.6943 41.7326 22.7566 41.5812C22.9599 41.0875 23.3498 40.6953 23.8406 40.4908C23.9911 40.4281 24.1882 40.3847 24.5267 40.3615ZM25.9425 45.0387C26.6801 45.0387 27.2779 44.4374 27.2779 43.6955C27.2779 42.9537 26.6801 42.3523 25.9425 42.3523C25.205 42.3523 24.6072 42.9537 24.6072 43.6955C24.6072 44.4374 25.205 45.0387 25.9425 45.0387Z" fill="white"/>
<path fill-rule="evenodd" clip-rule="evenodd" d="M25.9425 30.9349C25.3112 30.9349 24.8711 30.9345 24.5267 30.9109C24.1882 30.8876 23.9911 30.8442 23.8406 30.7815C23.3498 30.577 22.9599 30.1848 22.7566 29.6911C22.6943 29.5397 22.6511 29.3414 22.628 29.001C22.6045 28.6545 22.6041 28.2119 22.6041 27.5768C22.6041 26.9418 22.6045 26.4991 22.628 26.1526C22.6511 25.8122 22.6943 25.6139 22.7566 25.4625C22.9599 24.9689 23.3498 24.5766 23.8406 24.3721C23.9911 24.3094 24.1882 24.266 24.5267 24.2428C24.8711 24.2191 25.3112 24.2188 25.9425 24.2188H44.6377C45.2691 24.2188 45.7091 24.2191 46.0536 24.2428C46.392 24.266 46.5891 24.3094 46.7396 24.3721C47.2304 24.5766 47.6204 24.9689 47.8237 25.4625C47.886 25.6139 47.9292 25.8122 47.9523 26.1526C47.9758 26.4991 47.9761 26.9418 47.9761 27.5768C47.9761 28.2119 47.9758 28.6545 47.9523 29.001C47.9292 29.3414 47.886 29.5397 47.8237 29.6911C47.6204 30.1848 47.2304 30.577 46.7396 30.7815C46.5891 30.8442 46.392 30.8876 46.0536 30.9109C45.7091 30.9345 45.2691 30.9349 44.6377 30.9349H25.9425ZM25.9425 32.2781C25.3112 32.2781 24.8711 32.2785 24.5267 32.3021C24.1882 32.3253 23.9911 32.3688 23.8406 32.4315C23.3498 32.636 22.9599 33.0282 22.7566 33.5219C22.6943 33.6733 22.6511 33.8715 22.628 34.212C22.6045 34.5585 22.6041 35.0011 22.6041 35.6362C22.6041 36.2712 22.6045 36.7139 22.628 37.0603C22.6511 37.4008 22.6943 37.5991 22.7566 37.7504C22.9599 38.2441 23.3498 38.6364 23.8406 38.8409C23.9911 38.9036 24.1882 38.947 24.5267 38.9702C24.8711 38.9939 25.3112 38.9942 25.9425 38.9942H44.6377C45.2691 38.9942 45.7091 38.9939 46.0536 38.9702C46.392 38.947 46.5891 38.9036 46.7396 38.8409C47.2304 38.6364 47.6204 38.2441 47.8237 37.7504C47.886 37.5991 47.9292 37.4008 47.9523 37.0603C47.9758 36.7139 47.9761 36.2712 47.9761 35.6362C47.9761 35.0011 47.9758 34.5585 47.9523 34.212C47.9292 33.8715 47.886 33.6733 47.8237 33.5219C47.6204 33.0282 47.2304 32.636 46.7396 32.4315C46.5891 32.3688 46.392 32.3253 46.0536 32.3021C45.7091 32.2785 45.2691 32.2781 44.6377 32.2781H25.9425ZM27.2779 35.6362C27.2779 36.378 26.6801 36.9794 25.9425 36.9794C25.205 36.9794 24.6072 36.378 24.6072 35.6362C24.6072 34.8943 25.205 34.2929 25.9425 34.2929C26.6801 34.2929 27.2779 34.8943 27.2779 35.6362ZM25.9425 28.92C26.6801 28.92 27.2779 28.3187 27.2779 27.5768C27.2779 26.835 26.6801 26.2336 25.9425 26.2336C25.205 26.2336 24.6072 26.835 24.6072 27.5768C24.6072 28.3187 25.205 28.92 25.9425 28.92Z" fill="white"/>
</svg>
