<svg width="49" height="27" viewBox="0 0 49 27" fill="none" xmlns="http://www.w3.org/2000/svg">
<path d="M7.42065 13C6.86837 13 6.42065 13.4477 6.42065 14C6.42065 14.5523 6.86837 15 7.42065 15L7.42065 14L7.42065 13ZM41.1278 14.7071C41.5183 14.3166 41.5183 13.6834 41.1278 13.2929L34.7638 6.92893C34.3733 6.53841 33.7401 6.53841 33.3496 6.92893C32.9591 7.31946 32.9591 7.95262 33.3496 8.34315L39.0064 14L33.3496 19.6569C32.9591 20.0474 32.9591 20.6805 33.3496 21.0711C33.7401 21.4616 34.3733 21.4616 34.7638 21.0711L41.1278 14.7071ZM7.42065 14L7.42065 15L40.4207 15L40.4207 14L40.4207 13L7.42065 13L7.42065 14Z" fill="white"/>
</svg>
