<svg width="73" height="72" viewBox="0 0 73 72" fill="none" xmlns="http://www.w3.org/2000/svg">
<rect x="0.86377" y="0.456055" width="71.2723" height="71.2723" rx="35.6362" fill="#472799"/>
<path fill-rule="evenodd" clip-rule="evenodd" d="M50.4474 29.6048C50.4474 25.4846 47.1074 22.1445 42.9872 22.1445C38.867 22.1445 35.5269 25.4846 35.5269 29.6048C35.5269 30.7964 35.807 31.9254 36.3059 32.927C36.3171 32.9494 36.3214 32.9675 36.3228 32.9784C36.3234 32.9835 36.3233 32.9865 36.3233 32.9878L35.9372 34.4306C35.576 35.7807 36.8112 37.016 38.1614 36.6547L39.6042 36.2687C39.6023 36.2692 39.603 36.2688 39.6042 36.2687C39.6054 36.2686 39.6085 36.2685 39.6136 36.2692C39.6245 36.2705 39.6425 36.2749 39.6649 36.2861C40.6665 36.7849 41.7955 37.065 42.9872 37.065C47.1074 37.065 50.4474 33.725 50.4474 29.6048ZM39.6055 36.2683L39.6042 36.2687L39.6055 36.2683ZM42.9872 24.0907C46.0325 24.0907 48.5013 26.5594 48.5013 29.6048C48.5013 32.6501 46.0325 35.1189 42.9872 35.1189C42.1033 35.1189 41.2707 34.9117 40.5326 34.544C40.1184 34.3377 39.6109 34.2523 39.1024 34.3883L37.8753 34.7167L38.2036 33.4895C38.3397 32.981 38.2542 32.4735 38.0479 32.0593C37.6803 31.3213 37.4731 30.4886 37.4731 29.6048C37.4731 26.5594 39.9418 24.0907 42.9872 24.0907Z" fill="white"/>
<path fill-rule="evenodd" clip-rule="evenodd" d="M24.8328 28.8353C27.0126 26.6555 30.691 26.8212 32.2087 29.5408L33.0508 31.0496C34.0419 32.8256 33.6196 35.0663 32.1686 36.535C32.1493 36.5615 32.0469 36.7106 32.0341 36.9711C32.0179 37.3037 32.136 38.0728 33.3276 39.2644C34.5188 40.4556 35.2878 40.574 35.6205 40.5578C35.8812 40.5451 36.0305 40.4427 36.057 40.4233C37.5256 38.9724 39.7664 38.55 41.5423 39.5412L43.0512 40.3832C45.7708 41.901 45.9365 45.5794 43.7567 47.7592C42.5907 48.9251 41.0404 49.9611 39.2185 50.0302C36.5187 50.1325 32.0357 49.4353 27.5962 44.9958C23.1567 40.5562 22.4594 36.0733 22.5618 33.3734C22.6308 31.5516 23.6668 30.0012 24.8328 28.8353ZM30.5093 30.4892C29.7321 29.0966 27.6437 28.7767 26.2089 30.2114C25.203 31.2174 24.549 32.3277 24.5065 33.4471C24.4212 35.6986 24.9771 39.6243 28.9723 43.6196C32.9676 47.6149 36.8933 48.1708 39.1448 48.0854C40.2642 48.043 41.3746 47.389 42.3805 46.383C43.8153 44.9483 43.4953 42.8598 42.1028 42.0826L40.5939 41.2406C39.6554 40.7168 38.337 40.8954 37.4115 41.8209C37.3206 41.9117 36.7419 42.4517 35.715 42.5017C34.6638 42.5528 33.3914 42.0805 31.9514 40.6405C30.511 39.2001 30.0388 37.9273 30.0903 36.876C30.1406 35.849 30.6806 35.2709 30.771 35.1805C31.6965 34.255 31.8752 32.9366 31.3514 31.998L30.5093 30.4892Z" fill="white"/>
</svg>
