<svg width="72" height="72" viewBox="0 0 72 72" fill="none" xmlns="http://www.w3.org/2000/svg">
<rect x="0.136108" y="0.728516" width="71.2723" height="71.2723" rx="35.6362" fill="#472799"/>
<path fill-rule="evenodd" clip-rule="evenodd" d="M32.779 23.6289H38.7655C41.4404 23.6289 43.5591 23.6289 45.2173 23.8518C46.9238 24.0812 48.3051 24.5646 49.3943 25.6539C50.4836 26.7432 50.967 28.1244 51.1965 29.831C51.4194 31.4891 51.4194 33.6079 51.4194 36.2828V36.447C51.4194 39.122 51.4194 41.2407 51.1965 42.8989C50.967 44.6054 50.4836 45.9867 49.3943 47.0759C48.3051 48.1652 46.9238 48.6486 45.2173 48.8781C43.5591 49.101 41.4404 49.101 38.7654 49.101H32.779C30.1041 49.101 27.9854 49.101 26.3272 48.8781C24.6207 48.6486 23.2394 48.1652 22.1501 47.0759C21.0609 45.9867 20.5775 44.6054 20.348 42.8989C20.1251 41.2407 20.1251 39.122 20.1251 36.4471V36.2828C20.1251 33.6079 20.1251 31.4891 20.348 29.831C20.5775 28.1244 21.0609 26.7432 22.1501 25.6539C23.2394 24.5646 24.6207 24.0812 26.3272 23.8518C27.9853 23.6289 30.1041 23.6289 32.779 23.6289ZM26.6181 26.0157C25.1537 26.2125 24.31 26.5818 23.694 27.1978C23.078 27.8138 22.7088 28.6575 22.5119 30.1219C22.3108 31.6177 22.3084 33.5895 22.3084 36.3649C22.3084 39.1404 22.3108 41.1122 22.5119 42.608C22.7088 44.0724 23.078 44.9161 23.694 45.5321C24.31 46.1481 25.1537 46.5173 26.6181 46.7142C28.1139 46.9153 30.0857 46.9176 32.8611 46.9176H38.6833C41.4588 46.9176 43.4306 46.9153 44.9264 46.7142C46.3908 46.5173 47.2345 46.1481 47.8505 45.5321C48.4665 44.9161 48.8357 44.0724 49.0326 42.608C49.2337 41.1122 49.236 39.1404 49.236 36.3649C49.236 33.5895 49.2337 31.6177 49.0326 30.1219C48.8357 28.6575 48.4665 27.8138 47.8505 27.1978C47.2345 26.5818 46.3908 26.2125 44.9264 26.0157C43.4306 25.8145 41.4588 25.8122 38.6833 25.8122H32.8612C30.0857 25.8122 28.1139 25.8145 26.6181 26.0157ZM26.2003 29.8439C26.5863 29.3807 27.2747 29.3181 27.7378 29.7041L30.8802 32.3228C32.2382 33.4544 33.181 34.2375 33.9769 34.7495C34.7475 35.245 35.27 35.4114 35.7722 35.4114C36.2745 35.4114 36.797 35.245 37.5675 34.7495C38.3635 34.2375 39.3063 33.4544 40.6643 32.3228L43.8067 29.7041C44.2698 29.3181 44.9582 29.3807 45.3442 29.8439C45.7301 30.3071 45.6675 30.9954 45.2044 31.3814L42.0073 34.0456C40.7172 35.1208 39.6715 35.9922 38.7486 36.5858C37.7872 37.2041 36.8509 37.5947 35.7722 37.5947C34.6936 37.5947 33.7573 37.2041 32.7959 36.5858C31.873 35.9922 30.8273 35.1208 29.5372 34.0456L26.3401 31.3814C25.8769 30.9954 25.8144 30.3071 26.2003 29.8439Z" fill="white"/>
</svg>
