<svg width="73" height="72" viewBox="0 0 73 72" fill="none" xmlns="http://www.w3.org/2000/svg">
<rect x="0.86377" y="0.456055" width="71.2723" height="71.2723" rx="35.6362" fill="#472799"/>
<path d="M31.4824 22.5674H42.8436C47.1716 22.5674 50.6882 26.0839 50.6882 30.412V41.7731C50.6882 43.8537 49.8617 45.849 48.3905 47.3201C46.9194 48.7913 44.9241 49.6177 42.8436 49.6177H31.4824C27.1544 49.6177 23.6378 46.1012 23.6378 41.7731V30.412C23.6378 28.3315 24.4643 26.3362 25.9354 24.865C27.4066 23.3939 29.4019 22.5674 31.4824 22.5674ZM31.2119 25.2724C29.9206 25.2724 28.6821 25.7854 27.769 26.6985C26.8558 27.6117 26.3429 28.8501 26.3429 30.1415V42.0436C26.3429 44.7352 28.5204 46.9127 31.2119 46.9127H43.1141C44.4054 46.9127 45.6439 46.3997 46.557 45.4866C47.4702 44.5735 47.9831 43.335 47.9831 42.0436V30.1415C47.9831 27.45 45.8056 25.2724 43.1141 25.2724H31.2119ZM44.2637 27.3012C44.7121 27.3012 45.1421 27.4793 45.4592 27.7964C45.7762 28.1134 45.9544 28.5435 45.9544 28.9918C45.9544 29.4402 45.7762 29.8703 45.4592 30.1873C45.1421 30.5044 44.7121 30.6825 44.2637 30.6825C43.8153 30.6825 43.3853 30.5044 43.0682 30.1873C42.7512 29.8703 42.5731 29.4402 42.5731 28.9918C42.5731 28.5435 42.7512 28.1134 43.0682 27.7964C43.3853 27.4793 43.8153 27.3012 44.2637 27.3012ZM37.163 29.33C38.9565 29.33 40.6766 30.0425 41.9449 31.3107C43.2131 32.5789 43.9256 34.299 43.9256 36.0926C43.9256 37.8861 43.2131 39.6062 41.9449 40.8744C40.6766 42.1427 38.9565 42.8552 37.163 42.8552C35.3694 42.8552 33.6494 42.1427 32.3811 40.8744C31.1129 39.6062 30.4004 37.8861 30.4004 36.0926C30.4004 34.299 31.1129 32.5789 32.3811 31.3107C33.6494 30.0425 35.3694 29.33 37.163 29.33ZM37.163 32.035C36.0869 32.035 35.0548 32.4625 34.2939 33.2234C33.5329 33.9844 33.1054 35.0164 33.1054 36.0926C33.1054 37.1687 33.5329 38.2007 34.2939 38.9617C35.0548 39.7226 36.0869 40.1501 37.163 40.1501C38.2391 40.1501 39.2712 39.7226 40.0321 38.9617C40.7931 38.2007 41.2206 37.1687 41.2206 36.0926C41.2206 35.0164 40.7931 33.9844 40.0321 33.2234C39.2712 32.4625 38.2391 32.035 37.163 32.035Z" fill="white"/>
</svg>
