<svg width="54" height="54" viewBox="0 0 54 54" fill="none" xmlns="http://www.w3.org/2000/svg">
<path fill-rule="evenodd" clip-rule="evenodd" d="M25.6715 4.46484C16.425 4.46484 8.9292 12.1349 8.9292 21.5965C8.9292 26.669 11.0857 31.2283 14.5068 34.3629C15.6471 35.4077 16.4918 36.1817 17.0905 36.7434C17.3899 37.0242 17.6187 37.2435 17.7876 37.4119C17.8718 37.4958 17.9362 37.5622 17.9842 37.6137C18.0079 37.6392 18.0258 37.659 18.0388 37.6738C18.0515 37.6884 18.0575 37.6959 18.0575 37.6959C18.5855 38.3626 18.6998 38.5346 18.7678 38.6904C18.8359 38.8462 18.8849 39.0481 19.0181 39.8953C19.0706 40.2298 19.076 40.8027 19.076 42.362L19.076 42.429C19.076 43.3422 19.076 44.1299 19.1332 44.7764C19.1938 45.4599 19.3278 46.1368 19.6878 46.7747C20.0885 47.485 20.6649 48.0748 21.3591 48.4849C21.9825 48.8532 22.644 48.9904 23.312 49.0523C23.9437 49.1109 24.7135 49.1109 25.606 49.1109H25.7369C26.6294 49.1109 27.3992 49.1109 28.0309 49.0523C28.6989 48.9904 29.3604 48.8532 29.9839 48.4849C30.678 48.0748 31.2544 47.485 31.6552 46.7747C32.0151 46.1368 32.1492 45.4599 32.2097 44.7764C32.267 44.1299 32.2669 43.3422 32.2669 42.4289V42.362C32.2669 40.8027 32.2723 40.2298 32.3249 39.8953C32.4581 39.0481 32.507 38.8462 32.5751 38.6904C32.6432 38.5346 32.7574 38.3626 33.2854 37.6959C33.2854 37.6959 33.2909 37.689 33.3041 37.6738C33.3171 37.659 33.335 37.6392 33.3587 37.6137C33.4067 37.5622 33.4711 37.4958 33.5553 37.4119C33.7242 37.2435 33.9531 37.0242 34.2524 36.7434C34.8511 36.1817 35.6958 35.4077 36.8361 34.3629C40.2573 31.2283 42.4137 26.669 42.4137 21.5965C42.4137 12.1349 34.9179 4.46484 25.6715 4.46484ZM29.2098 43.9195H22.1331C22.1398 44.1359 22.1498 44.325 22.1648 44.4952C22.2062 44.9627 22.2761 45.1325 22.324 45.2173C22.4576 45.4541 22.6497 45.6507 22.8811 45.7874C22.964 45.8364 23.1299 45.9078 23.5868 45.9502C24.0646 45.9945 24.6951 45.996 25.6715 45.996C26.6478 45.996 27.2783 45.9945 27.7561 45.9502C28.213 45.9078 28.3789 45.8364 28.4618 45.7874C28.6932 45.6507 28.8853 45.4541 29.0189 45.2173C29.0668 45.1325 29.1367 44.9627 29.1781 44.4952C29.1932 44.325 29.2032 44.1359 29.2098 43.9195ZM28.1503 18.2526C28.8344 18.7525 28.9928 19.7252 28.5042 20.4251L25.8746 24.1922H29.0051C29.5753 24.1922 30.0976 24.5182 30.3585 25.0369C30.6194 25.5557 30.575 26.1801 30.2437 26.6548L25.895 32.8845C25.4064 33.5844 24.4559 33.7465 23.7718 33.2466C23.0878 32.7466 22.9294 31.7739 23.418 31.074L26.0476 27.307H22.917C22.3469 27.307 21.8246 26.981 21.5637 26.4622C21.3028 25.9435 21.3471 25.3191 21.6785 24.8443L26.0272 18.6147C26.5157 17.9147 27.4663 17.7526 28.1503 18.2526Z" fill="white"/>
</svg>
