<svg width="73" height="72" viewBox="0 0 73 72" fill="none" xmlns="http://www.w3.org/2000/svg">
<rect x="0.86377" y="0.728516" width="71.2723" height="71.2723" rx="35.6362" fill="#472799"/>
<path fill-rule="evenodd" clip-rule="evenodd" d="M25.2389 33.9037C25.2389 27.4093 30.4156 22.1143 36.8384 22.1143C43.2612 22.1143 48.4379 27.4093 48.4379 33.9037C48.4379 37.039 47.5444 40.4056 45.9648 43.314C44.3872 46.2189 42.0822 48.743 39.1987 50.0908C37.7008 50.7909 35.976 50.7909 34.4781 50.0908C31.5946 48.743 29.2896 46.2189 27.712 43.314C26.1324 40.4056 25.2389 37.039 25.2389 33.9037ZM36.8384 24.1027C31.5469 24.1027 27.2274 28.4741 27.2274 33.9037C27.2274 36.6837 28.0263 39.7262 29.4594 42.365C30.8945 45.0074 32.9224 47.1687 35.3201 48.2894C36.2843 48.7401 37.3925 48.7401 38.3567 48.2894C40.7544 47.1687 42.7823 45.0074 44.2174 42.365C45.6505 39.7262 46.4494 36.6837 46.4494 33.9037C46.4494 28.4741 42.1299 24.1027 36.8384 24.1027ZM36.8384 30.731C35.1911 30.731 33.8557 32.0664 33.8557 33.7138C33.8557 35.3611 35.1911 36.6965 36.8384 36.6965C38.4857 36.6965 39.8211 35.3611 39.8211 33.7138C39.8211 32.0664 38.4857 30.731 36.8384 30.731ZM31.8672 33.7138C31.8672 30.9682 34.0929 28.7425 36.8384 28.7425C39.5839 28.7425 41.8096 30.9682 41.8096 33.7138C41.8096 36.4593 39.5839 38.685 36.8384 38.685C34.0929 38.685 31.8672 36.4593 31.8672 33.7138Z" fill="white"/>
</svg>
