<svg width="55" height="55" viewBox="0 0 55 55" fill="none" xmlns="http://www.w3.org/2000/svg">
<path fill-rule="evenodd" clip-rule="evenodd" d="M26.2088 5.17699C16.9623 5.17699 9.46655 12.8471 9.46655 22.3086C9.46655 27.3812 11.623 31.9405 15.0442 35.0751C16.1844 36.1198 17.0292 36.8939 17.6279 37.4555C17.9272 37.7363 18.1561 37.9557 18.325 38.1241C18.4092 38.208 18.4736 38.2744 18.5216 38.3259C18.5453 38.3513 18.5632 38.3712 18.5761 38.386C18.5888 38.4005 18.5949 38.408 18.5949 38.408C19.1228 39.0747 19.2371 39.2467 19.3052 39.4025C19.3732 39.5584 19.4222 39.7602 19.5554 40.6074C19.608 40.9419 19.6134 41.5148 19.6134 43.0742L19.6134 43.1411C19.6133 44.0544 19.6133 44.8421 19.6706 45.4885C19.7311 46.1721 19.8652 46.8489 20.2251 47.4869C20.6259 48.1972 21.2023 48.787 21.8964 49.197C22.5199 49.5654 23.1813 49.7025 23.8494 49.7645C24.4811 49.8231 25.2509 49.823 26.1434 49.823H26.2743C27.1667 49.823 27.9365 49.8231 28.5683 49.7645C29.2363 49.7025 29.8978 49.5654 30.5212 49.197C31.2153 48.787 31.7918 48.1972 32.1925 47.4869C32.5525 46.8489 32.6865 46.1721 32.7471 45.4885C32.8043 44.8421 32.8043 44.0543 32.8042 43.1411V43.0742C32.8042 41.5148 32.8096 40.9419 32.8622 40.6074C32.9954 39.7602 33.0444 39.5584 33.1125 39.4025C33.1805 39.2467 33.2948 39.0747 33.8228 38.408C33.8228 38.408 33.8282 38.4011 33.8415 38.386C33.8545 38.3712 33.8723 38.3513 33.8961 38.3259C33.944 38.2744 34.0084 38.208 34.0926 38.1241C34.2616 37.9557 34.4904 37.7363 34.7898 37.4555C35.3884 36.8939 36.2332 36.1198 37.3735 35.0751C40.7946 31.9405 42.9511 27.3812 42.9511 22.3086C42.9511 12.8471 35.4553 5.17699 26.2088 5.17699ZM29.7472 44.6316H22.6705C22.6771 44.848 22.6871 45.0371 22.7022 45.2073C22.7436 45.6749 22.8135 45.8446 22.8613 45.9295C22.9949 46.1662 23.1871 46.3628 23.4184 46.4995C23.5014 46.5485 23.6672 46.62 24.1241 46.6624C24.602 46.7067 25.2325 46.7082 26.2088 46.7082C27.1852 46.7082 27.8157 46.7067 28.2935 46.6624C28.7504 46.62 28.9163 46.5485 28.9992 46.4995C29.2306 46.3628 29.4227 46.1662 29.5563 45.9295C29.6042 45.8446 29.674 45.6749 29.7154 45.2073C29.7305 45.0371 29.7405 44.848 29.7472 44.6316ZM28.6877 18.9647C29.3717 19.4647 29.5301 20.4373 29.0416 21.1373L26.412 24.9043H29.5425C30.1126 24.9043 30.6349 25.2303 30.8958 25.7491C31.1567 26.2678 31.1124 26.8922 30.781 27.3669L26.4324 33.5966C25.9438 34.2965 24.9932 34.4587 24.3092 33.9587C23.6252 33.4588 23.4667 32.4861 23.9553 31.7862L26.5849 28.0191H23.4544C22.8843 28.0191 22.3619 27.6931 22.1011 27.1744C21.8402 26.6556 21.8845 26.0312 22.2159 25.5565L26.5645 19.3268C27.0531 18.6269 28.0037 18.4648 28.6877 18.9647Z" fill="url(#paint0_linear_32_1056)"/>
<defs>
<linearGradient id="paint0_linear_32_1056" x1="26.2735" y1="-0.969929" x2="26.2735" y2="89.2927" gradientUnits="userSpaceOnUse">
<stop stop-color="#7640FF"/>
<stop offset="1" stop-color="#472799"/>
</linearGradient>
</defs>
</svg>
