<svg width="50" height="27" viewBox="0 0 50 27" fill="none" xmlns="http://www.w3.org/2000/svg">
<path d="M8.28857 13.001C7.73629 13.001 7.28857 13.4487 7.28857 14.001C7.28857 14.5533 7.73629 15.001 8.28857 15.001L8.28857 14.001L8.28857 13.001ZM41.9957 14.7081C42.3862 14.3176 42.3862 13.6844 41.9957 13.2939L35.6317 6.92991C35.2412 6.53939 34.608 6.53939 34.2175 6.92991C33.827 7.32044 33.827 7.9536 34.2175 8.34412L39.8744 14.001L34.2175 19.6578C33.827 20.0484 33.827 20.6815 34.2175 21.072C34.608 21.4626 35.2412 21.4626 35.6317 21.072L41.9957 14.7081ZM8.28857 14.001L8.28857 15.001L41.2886 15.001L41.2886 14.001L41.2886 13.001L8.28857 13.001L8.28857 14.001Z" fill="white"/>
</svg>
